<svg width="242" height="242" xmlns="http://www.w3.org/2000/svg" xml:space="preserve" enable-background="new 0 0 688 283" version="1.1">
 <g>
  <title>Layer 1</title>
  <path id="svg_2" d="m130.7927,83.13326c-6.37177,6.3779 -12.43679,12.56423 -18.6507,18.59723c-1.86982,1.8154 -2.58878,3.25653 -1.45781,5.98373c3.417,8.23969 3.09518,16.62355 -0.62425,24.69969c-1.18967,2.58319 -0.85097,4.09853 1.1132,6.04145c13.50021,13.35392 26.94258,26.76792 40.25165,40.31187c2.19263,2.23132 3.89304,2.0795 6.51741,1.0007c17.46731,-7.18024 37.02468,1.67369 43.03664,19.323c6.05951,17.7889 -3.78793,36.79446 -22.09396,41.621c-12.38431,3.2652 -23.58417,0.30493 -32.30646,-9.35016c-8.65522,-9.58082 -10.78984,-20.84439 -6.3759,-32.97598c1.27971,-3.51723 0.88941,-5.56538 -1.77137,-8.16945c-13.21331,-12.93167 -26.2416,-26.05351 -39.2436,-39.19885c-2.08573,-2.1087 -3.74746,-2.89436 -6.87444,-1.67358c-14.21965,5.55133 -29.34502,0.88903 -38.1164,-11.35915c-8.44252,-11.78897 -7.80693,-28.2729 1.52137,-39.45682c9.57071,-11.47458 25.13228,-14.83496 38.92401,-8.40523c0.89818,0.41874 1.79617,0.83791 3.65408,1.70465c3.43964,-3.72802 6.93261,-7.73477 10.65969,-11.51042c9.71246,-9.83899 19.45213,-19.65406 29.3548,-29.30021c2.47231,-2.40828 2.97537,-4.32278 1.75535,-7.73189c-6.24698,-17.45599 2.96116,-35.85259 20.51403,-41.67915c16.9996,-5.64291 35.63924,4.06114 40.73698,21.68076c3.63124,12.55093 0.69151,23.91429 -8.92297,32.85119c-9.7845,9.09495 -21.37409,10.86216 -33.91664,6.41479c-1.55766,-0.55231 -3.03578,-1.32899 -4.91619,-2.16398c-7.47124,7.46313 -14.99504,14.97879 -22.76852,22.74481m36.49983,110.58496c-1.10231,0.36044 -2.24688,0.62617 -3.30028,1.09625c-8.79591,3.92526 -12.32367,14.20406 -7.76761,22.54076c4.52878,8.2868 15.21841,10.84933 23.22922,5.56851c5.92237,-3.90405 8.52779,-11.60182 6.24521,-18.45154c-2.40169,-7.20712 -8.79716,-11.1605 -18.40654,-10.75398m-71.98569,-67.83742c0.43789,-1.76051 1.16086,-3.50467 1.26294,-5.28445c0.38382,-6.69228 -2.20272,-11.9655 -8.10316,-15.35649c-5.51872,-3.17162 -12.9257,-2.68692 -17.77361,1.36955c-5.07738,4.24849 -7.3795,9.62213 -5.71274,16.34596c1.70626,6.88315 6.23291,10.98409 12.97046,12.16405c7.54923,1.32211 13.15823,-2.11388 17.35611,-9.23862m58.90815,-92.12236c1.10049,12.14746 15.08427,19.5031 25.87796,11.53596c6.01439,-4.43939 8.03309,-12.46956 5.08294,-19.29279c-2.92428,-6.7634 -10.21675,-10.66117 -17.58061,-9.39669c-7.73933,1.32896 -12.83148,7.53316 -13.38029,17.15352z" fill="#4789CA"/>
  <path id="svg_8" d="m188.30614,92.2816c12.36301,9.1516 17.19992,22.85904 13.02997,36.26545c-4.18027,13.43953 -16.0114,22.6921 -29.4576,23.03738c-14.41723,0.37024 -26.71852,-7.67064 -31.66205,-20.69626c-4.93054,-12.99138 -1.32037,-27.15158 9.24867,-36.27618c10.79121,-9.31638 25.07281,-10.25447 38.84101,-2.33039m-1.98033,25.87279c-1.23269,-11.34149 -11.92689,-18.0121 -22.05081,-13.75439c-7.31109,3.07475 -11.52126,11.02978 -9.66202,18.25616c2.09564,8.14519 9.43942,13.51761 17.36203,12.70139c8.27126,-0.85215 13.96666,-7.3275 14.3508,-17.20316z" fill="#4789CA"/>
  <path id="svg_9" d="m96.91486,181.65413c11.2384,7.1351 16.77461,17.23425 15.90733,30.00762c-0.89489,13.18004 -7.87247,22.79292 -20.21363,27.95399c-13.24501,5.53906 -28.9744,1.11966 -37.67992,-10.27586c-8.89651,-11.64553 -8.89145,-27.65811 0.01247,-39.44512c8.67094,-11.47859 24.21277,-15.7783 37.61778,-10.37675c1.38354,0.55749 2.69376,1.29703 4.35597,2.13612m-5.93169,40.27579c5.58267,-4.99196 7.07786,-11.23427 4.61842,-18.07425c-2.19691,-6.10991 -7.02571,-9.59573 -13.51941,-10.29652c-7.07086,-0.76307 -13.6624,3.3116 -16.35158,9.78927c-2.6918,6.48395 -0.91349,14.00647 4.38226,18.53786c5.6283,4.81593 13.07499,4.99974 20.87031,0.04364z" fill="#4789CA"/>
  <path id="svg_10" d="m48.28988,32.5132c0.81139,-16.0862 10.5352,-28.30415 24.79467,-31.59975c14.1195,-3.26325 28.84292,3.24413 35.74245,15.79725c6.6277,12.05855 5.22305,26.15178 -3.66733,36.79516c-8.29286,9.92804 -22.30833,13.83808 -34.88337,9.73175c-12.76861,-4.16955 -21.21056,-15.79569 -21.98642,-30.72441m44.22237,10.80358c4.9315,-6.64648 5.52969,-13.38609 1.72129,-19.39347c-3.62604,-5.71971 -10.10161,-8.53139 -16.75556,-7.27522c-6.68462,1.26195 -11.5301,6.33844 -12.91341,13.52907c-1.13548,5.90235 2.11813,12.68231 7.71812,16.08325c6.27002,3.80786 13.02383,2.98427 20.22956,-2.94363z" fill="#4789CA"/>
  <path id="svg_66" d="m167.7022,193.65941c9.19971,-0.34771 15.59518,3.60567 17.99687,10.81279c2.28258,6.84972 -0.32284,14.54749 -6.24521,18.45154c-8.01081,5.28082 -18.70044,2.71829 -23.22922,-5.56851c-4.55606,-8.3367 -1.0283,-18.6155 7.76761,-22.54076c1.0534,-0.47008 2.19797,-0.73581 3.70995,-1.15506z" fill="#FCFDFE"/>
  <path id="svg_67" d="m95.15066,126.22519c-4.0417,6.78035 -9.6507,10.21634 -17.19993,8.89423c-6.73755,-1.17996 -11.2642,-5.2809 -12.97046,-12.16405c-1.66676,-6.72383 0.63536,-12.09747 5.71274,-16.34596c4.84791,-4.05647 12.25489,-4.54117 17.77361,-1.36955c5.90044,3.39099 8.48698,8.66421 8.10316,15.35649c-0.10208,1.77978 -0.82505,3.52394 -1.41912,5.62884z" fill="#FBFDFE"/>
  <path id="svg_68" d="m154.20788,33.34152c0.55592,-9.20344 5.64807,-15.40764 13.3874,-16.7366c7.36386,-1.26448 14.65633,2.63329 17.58061,9.39669c2.95015,6.82323 0.93145,14.8534 -5.08294,19.29279c-10.79369,7.96714 -24.77747,0.6115 -25.88507,-11.95288z" fill="#FCFDFE"/>
  <path id="svg_71" d="m186.33352,118.58916c-0.39185,9.44089 -6.08725,15.91624 -14.35851,16.76839c-7.92261,0.81622 -15.26639,-4.5562 -17.36203,-12.70139c-1.85924,-7.22638 2.35093,-15.18141 9.66202,-18.25616c10.12392,-4.25771 20.81812,2.4129 22.05852,14.18916z" fill="#FCFDFE"/>
  <path id="svg_72" d="m90.68921,222.15841c-7.50136,4.72761 -14.94805,4.5438 -20.57635,-0.27213c-5.29575,-4.53139 -7.07406,-12.05391 -4.38226,-18.53786c2.68918,-6.47767 9.28072,-10.55234 16.35158,-9.78927c6.4937,0.70079 11.3225,4.18661 13.51941,10.29652c2.45944,6.83998 0.96425,13.08229 -4.91238,18.30274z" fill="#FBFDFE"/>
  <path id="svg_73" d="m92.25997,43.58592c-6.95345,5.65876 -13.70726,6.48235 -19.97728,2.67449c-5.59999,-3.40094 -8.8536,-10.1809 -7.71812,-16.08325c1.38331,-7.19063 6.22879,-12.26712 12.91341,-13.52907c6.65395,-1.25617 13.12952,1.55551 16.75556,7.27522c3.8084,6.00738 3.21021,12.74699 -1.97357,19.66261z" fill="#FBFDFE"/>
 </g>

</svg>